<svg id="visual" viewBox="0 0 900 600" width="900" height="600" xmlns="http://www.w3.org/2000/svg" xmlns:xlink="http://www.w3.org/1999/xlink" version="1.1"><rect x="0" y="0" width="900" height="600" fill="#000000"></rect><defs><linearGradient id="grad1_0" x1="33.3%" y1="0%" x2="100%" y2="100%"><stop offset="20%" stop-color="#000000" stop-opacity="1"></stop><stop offset="80%" stop-color="#000000" stop-opacity="1"></stop></linearGradient></defs><defs><linearGradient id="grad2_0" x1="0%" y1="0%" x2="66.7%" y2="100%"><stop offset="20%" stop-color="#000000" stop-opacity="1"></stop><stop offset="80%" stop-color="#000000" stop-opacity="1"></stop></linearGradient></defs><g transform="translate(900, 0)"><path d="M0 223C-45.3 226.9 -90.6 230.8 -121.7 210.8C-152.8 190.7 -169.7 146.6 -186.2 107.5C-202.7 68.4 -218.9 34.2 -235 0L0 0Z" fill="#2b2d2d"></path></g><g transform="translate(0, 600)"><path d="M0 -228C37.1 -215.9 74.1 -203.8 107 -185.3C139.9 -166.8 168.5 -142 190.5 -110C212.6 -78 228 -39 243.4 0L0 0Z" fill="#2b2d2d"></path></g></svg>